<svg id="eJI1C2qrWMa1" xmlns="http://www.w3.org/2000/svg" xmlns:xlink="http://www.w3.org/1999/xlink" viewBox="0 0 2160 2160" shape-rendering="geometricPrecision" text-rendering="geometricPrecision" project-id="000a8a3bc34b4760a1346b9e82e426f0" export-id="732eca2480cf4d4eb60a28be731adc21" cached="false"><g transform="matrix(1.811876 0 0 1.811876-2398.80192-876.825969)"><g transform="matrix(1.164382 0 0 1.164382-94.854245-119.288586)"><path d="M1264.85284,1029.97868c0-257.11817,208.43546-465.55363,465.55363-465.55363s465.55363,208.43546,465.55363,465.55363-208.43546,465.55363-465.55363,465.55363-465.55363-208.43546-465.55363-465.55363Zm465.55363,427.28923c235.98532,0,427.28923-191.3039,427.28923-427.28923s-191.3039-427.28923-427.28923-427.28923-427.28923,191.3039-427.28923,427.28923s191.3039,427.28923,427.28923,427.28923Z" fill="#fff" stroke-width="0"/></g><g transform="matrix(.982378 0 0 0.982378 220.086567 68.171693)"><path d="M1264.85284,1029.97868c0-257.11817,208.43546-465.55363,465.55363-465.55363s465.55363,208.43546,465.55363,465.55363-208.43546,465.55363-465.55363,465.55363-465.55363-208.43546-465.55363-465.55363Zm465.55363,427.28923c235.98532,0,427.28923-191.3039,427.28923-427.28923s-191.3039-427.28923-427.28923-427.28923-427.28923,191.3039-427.28923,427.28923s191.3039,427.28923,427.28923,427.28923Z" fill="#fff" stroke-width="0"/></g><g transform="matrix(.811146 0 0 0.811146 516.387645 244.536948)"><path d="M1264.85284,1029.97868c0-257.11817,208.43546-465.55363,465.55363-465.55363s465.55363,208.43546,465.55363,465.55363-208.43546,465.55363-465.55363,465.55363-465.55363-208.43546-465.55363-465.55363Zm465.55363,427.28923c235.98532,0,427.28923-191.3039,427.28923-427.28923s-191.3039-427.28923-427.28923-427.28923-427.28923,191.3039-427.28923,427.28923s191.3039,427.28923,427.28923,427.28923Z" fill="#fff" stroke-width="0"/></g></g><g transform="matrix(1.048634 0 0 1.048634-933.37728-52.524656)"><g transform="matrix(1.164382 0 0 1.164382-94.854245-119.288586)"><path d="M1264.85284,1029.97868c0-257.11817,208.43546-465.55363,465.55363-465.55363s465.55363,208.43546,465.55363,465.55363-208.43546,465.55363-465.55363,465.55363-465.55363-208.43546-465.55363-465.55363Zm465.55363,427.28923c235.98532,0,427.28923-191.3039,427.28923-427.28923s-191.3039-427.28923-427.28923-427.28923-427.28923,191.3039-427.28923,427.28923s191.3039,427.28923,427.28923,427.28923Z" fill="#fff" stroke-width="0"/></g><g transform="matrix(.982378 0 0 0.982378 220.086567 68.171693)"><path d="M1264.85284,1029.97868c0-257.11817,208.43546-465.55363,465.55363-465.55363s465.55363,208.43546,465.55363,465.55363-208.43546,465.55363-465.55363,465.55363-465.55363-208.43546-465.55363-465.55363Zm465.55363,427.28923c235.98532,0,427.28923-191.3039,427.28923-427.28923s-191.3039-427.28923-427.28923-427.28923-427.28923,191.3039-427.28923,427.28923s191.3039,427.28923,427.28923,427.28923Z" fill="#fff" stroke-width="0"/></g><g transform="matrix(.811146 0 0 0.811146 516.387645 244.536948)"><path d="M1264.85284,1029.97868c0-257.11817,208.43546-465.55363,465.55363-465.55363s465.55363,208.43546,465.55363,465.55363-208.43546,465.55363-465.55363,465.55363-465.55363-208.43546-465.55363-465.55363Zm465.55363,427.28923c235.98532,0,427.28923-191.3039,427.28923-427.28923s-191.3039-427.28923-427.28923-427.28923-427.28923,191.3039-427.28923,427.28923s191.3039,427.28923,427.28923,427.28923Z" fill="#fff" stroke-width="0"/></g></g><g transform="matrix(.738988 0 0 0.738986-338.857049 281.895346)"><g transform="matrix(1.164382 0 0 1.164382-94.854245-119.288586)"><path d="M1264.85284,1029.97868c0-257.11817,208.43546-465.55363,465.55363-465.55363s465.55363,208.43546,465.55363,465.55363-208.43546,465.55363-465.55363,465.55363-465.55363-208.43546-465.55363-465.55363Zm465.55363,427.28923c235.98532,0,427.28923-191.3039,427.28923-427.28923s-191.3039-427.28923-427.28923-427.28923-427.28923,191.3039-427.28923,427.28923s191.3039,427.28923,427.28923,427.28923Z" fill="#fff" stroke-width="0"/></g><g transform="matrix(.982378 0 0 0.982378 220.086567 68.171693)"><path d="M1264.85284,1029.97868c0-257.11817,208.43546-465.55363,465.55363-465.55363s465.55363,208.43546,465.55363,465.55363-208.43546,465.55363-465.55363,465.55363-465.55363-208.43546-465.55363-465.55363Zm465.55363,427.28923c235.98532,0,427.28923-191.3039,427.28923-427.28923s-191.3039-427.28923-427.28923-427.28923-427.28923,191.3039-427.28923,427.28923s191.3039,427.28923,427.28923,427.28923Z" fill="#fff" stroke-width="0"/></g><g transform="matrix(.811146 0 0 0.811146 516.387645 244.536948)"><path d="M1264.85284,1029.97868c0-257.11817,208.43546-465.55363,465.55363-465.55363s465.55363,208.43546,465.55363,465.55363-208.43546,465.55363-465.55363,465.55363-465.55363-208.43546-465.55363-465.55363Zm465.55363,427.28923c235.98532,0,427.28923-191.3039,427.28923-427.28923s-191.3039-427.28923-427.28923-427.28923-427.28923,191.3039-427.28923,427.28923s191.3039,427.28923,427.28923,427.28923Z" fill="#fff" stroke-width="0"/></g></g><g transform="matrix(.422269 0 0 0.422267 269.24352 623.951666)"><g transform="matrix(1.164382 0 0 1.164382-94.854245-119.288586)"><path d="M1264.85284,1029.97868c0-257.11817,208.43546-465.55363,465.55363-465.55363s465.55363,208.43546,465.55363,465.55363-208.43546,465.55363-465.55363,465.55363-465.55363-208.43546-465.55363-465.55363Zm465.55363,427.28923c235.98532,0,427.28923-191.3039,427.28923-427.28923s-191.3039-427.28923-427.28923-427.28923-427.28923,191.3039-427.28923,427.28923s191.3039,427.28923,427.28923,427.28923Z" fill="#fff" stroke-width="0"/></g><g transform="matrix(.982378 0 0 0.982378 220.086567 68.171693)"><path d="M1264.85284,1029.97868c0-257.11817,208.43546-465.55363,465.55363-465.55363s465.55363,208.43546,465.55363,465.55363-208.43546,465.55363-465.55363,465.55363-465.55363-208.43546-465.55363-465.55363Zm465.55363,427.28923c235.98532,0,427.28923-191.3039,427.28923-427.28923s-191.3039-427.28923-427.28923-427.28923-427.28923,191.3039-427.28923,427.28923s191.3039,427.28923,427.28923,427.28923Z" fill="#fff" stroke-width="0"/></g><g transform="matrix(.811146 0 0 0.811146 516.387645 244.536948)"><path d="M1264.85284,1029.97868c0-257.11817,208.43546-465.55363,465.55363-465.55363s465.55363,208.43546,465.55363,465.55363-208.43546,465.55363-465.55363,465.55363-465.55363-208.43546-465.55363-465.55363Zm465.55363,427.28923c235.98532,0,427.28923-191.3039,427.28923-427.28923s-191.3039-427.28923-427.28923-427.28923-427.28923,191.3039-427.28923,427.28923s191.3039,427.28923,427.28923,427.28923Z" fill="#fff" stroke-width="0"/></g></g><g transform="matrix(.244113 0 0 0.244111 611.30304 816.360135)"><g transform="matrix(1.164382 0 0 1.164382-94.854245-119.288586)"><path d="M1264.85284,1029.97868c0-257.11817,208.43546-465.55363,465.55363-465.55363s465.55363,208.43546,465.55363,465.55363-208.43546,465.55363-465.55363,465.55363-465.55363-208.43546-465.55363-465.55363Zm465.55363,427.28923c235.98532,0,427.28923-191.3039,427.28923-427.28923s-191.3039-427.28923-427.28923-427.28923-427.28923,191.3039-427.28923,427.28923s191.3039,427.28923,427.28923,427.28923Z" fill="#fff" stroke-width="0"/></g><g transform="matrix(.982378 0 0 0.982378 220.086567 68.171693)"><path d="M1264.85284,1029.97868c0-257.11817,208.43546-465.55363,465.55363-465.55363s465.55363,208.43546,465.55363,465.55363-208.43546,465.55363-465.55363,465.55363-465.55363-208.43546-465.55363-465.55363Zm465.55363,427.28923c235.98532,0,427.28923-191.3039,427.28923-427.28923s-191.3039-427.28923-427.28923-427.28923-427.28923,191.3039-427.28923,427.28923s191.3039,427.28923,427.28923,427.28923Z" fill="#fff" stroke-width="0"/></g><g transform="matrix(.811146 0 0 0.811146 516.387645 244.536948)"><path d="M1264.85284,1029.97868c0-257.11817,208.43546-465.55363,465.55363-465.55363s465.55363,208.43546,465.55363,465.55363-208.43546,465.55363-465.55363,465.55363-465.55363-208.43546-465.55363-465.55363Zm465.55363,427.28923c235.98532,0,427.28923-191.3039,427.28923-427.28923s-191.3039-427.28923-427.28923-427.28923-427.28923,191.3039-427.28923,427.28923s191.3039,427.28923,427.28923,427.28923Z" fill="#fff" stroke-width="0"/></g></g><g transform="matrix(.142285 0 0 0.142284 806.8128 926.333289)"><g transform="matrix(1.164382 0 0 1.164382-94.854245-119.288586)"><path d="M1264.85284,1029.97868c0-257.11817,208.43546-465.55363,465.55363-465.55363s465.55363,208.43546,465.55363,465.55363-208.43546,465.55363-465.55363,465.55363-465.55363-208.43546-465.55363-465.55363Zm465.55363,427.28923c235.98532,0,427.28923-191.3039,427.28923-427.28923s-191.3039-427.28923-427.28923-427.28923-427.28923,191.3039-427.28923,427.28923s191.3039,427.28923,427.28923,427.28923Z" fill="#fff" stroke-width="0"/></g><g transform="matrix(.982378 0 0 0.982378 220.086567 68.171693)"><path d="M1264.85284,1029.97868c0-257.11817,208.43546-465.55363,465.55363-465.55363s465.55363,208.43546,465.55363,465.55363-208.43546,465.55363-465.55363,465.55363-465.55363-208.43546-465.55363-465.55363Zm465.55363,427.28923c235.98532,0,427.28923-191.3039,427.28923-427.28923s-191.3039-427.28923-427.28923-427.28923-427.28923,191.3039-427.28923,427.28923s191.3039,427.28923,427.28923,427.28923Z" fill="#fff" stroke-width="0"/></g><g transform="matrix(.811146 0 0 0.811146 516.387645 244.536948)"><path d="M1264.85284,1029.97868c0-257.11817,208.43546-465.55363,465.55363-465.55363s465.55363,208.43546,465.55363,465.55363-208.43546,465.55363-465.55363,465.55363-465.55363-208.43546-465.55363-465.55363Zm465.55363,427.28923c235.98532,0,427.28923-191.3039,427.28923-427.28923s-191.3039-427.28923-427.28923-427.28923-427.28923,191.3039-427.28923,427.28923s191.3039,427.28923,427.28923,427.28923Z" fill="#fff" stroke-width="0"/></g></g><g transform="matrix(.081947 0 0 0.081946 922.66176 991.498325)"><g transform="matrix(1.164382 0 0 1.164382-94.854245-119.288586)"><path d="M1264.85284,1029.97868c0-257.11817,208.43546-465.55363,465.55363-465.55363s465.55363,208.43546,465.55363,465.55363-208.43546,465.55363-465.55363,465.55363-465.55363-208.43546-465.55363-465.55363Zm465.55363,427.28923c235.98532,0,427.28923-191.3039,427.28923-427.28923s-191.3039-427.28923-427.28923-427.28923-427.28923,191.3039-427.28923,427.28923s191.3039,427.28923,427.28923,427.28923Z" fill="#fff" stroke-width="0"/></g><g transform="matrix(.982378 0 0 0.982378 220.086567 68.171693)"><path d="M1264.85284,1029.97868c0-257.11817,208.43546-465.55363,465.55363-465.55363s465.55363,208.43546,465.55363,465.55363-208.43546,465.55363-465.55363,465.55363-465.55363-208.43546-465.55363-465.55363Zm465.55363,427.28923c235.98532,0,427.28923-191.3039,427.28923-427.28923s-191.3039-427.28923-427.28923-427.28923-427.28923,191.3039-427.28923,427.28923s191.3039,427.28923,427.28923,427.28923Z" fill="#fff" stroke-width="0"/></g><g transform="matrix(.811146 0 0 0.811146 516.387645 244.536948)"><path d="M1264.85284,1029.97868c0-257.11817,208.43546-465.55363,465.55363-465.55363s465.55363,208.43546,465.55363,465.55363-208.43546,465.55363-465.55363,465.55363-465.55363-208.43546-465.55363-465.55363Zm465.55363,427.28923c235.98532,0,427.28923-191.3039,427.28923-427.28923s-191.3039-427.28923-427.28923-427.28923-427.28923,191.3039-427.28923,427.28923s191.3039,427.28923,427.28923,427.28923Z" fill="#fff" stroke-width="0"/></g></g><g transform="matrix(.046101 0 0 0.0461 991.48608 1030.212003)"><g transform="matrix(1.164382 0 0 1.164382-94.854245-119.288586)"><path d="M1264.85284,1029.97868c0-257.11817,208.43546-465.55363,465.55363-465.55363s465.55363,208.43546,465.55363,465.55363-208.43546,465.55363-465.55363,465.55363-465.55363-208.43546-465.55363-465.55363Zm465.55363,427.28923c235.98532,0,427.28923-191.3039,427.28923-427.28923s-191.3039-427.28923-427.28923-427.28923-427.28923,191.3039-427.28923,427.28923s191.3039,427.28923,427.28923,427.28923Z" fill="#fff" stroke-width="0"/></g><g transform="matrix(.982378 0 0 0.982378 220.086567 68.171693)"><path d="M1264.85284,1029.97868c0-257.11817,208.43546-465.55363,465.55363-465.55363s465.55363,208.43546,465.55363,465.55363-208.43546,465.55363-465.55363,465.55363-465.55363-208.43546-465.55363-465.55363Zm465.55363,427.28923c235.98532,0,427.28923-191.3039,427.28923-427.28923s-191.3039-427.28923-427.28923-427.28923-427.28923,191.3039-427.28923,427.28923s191.3039,427.28923,427.28923,427.28923Z" fill="#fff" stroke-width="0"/></g><g transform="matrix(.811146 0 0 0.811146 516.387645 244.536948)"><path d="M1264.85284,1029.97868c0-257.11817,208.43546-465.55363,465.55363-465.55363s465.55363,208.43546,465.55363,465.55363-208.43546,465.55363-465.55363,465.55363-465.55363-208.43546-465.55363-465.55363Zm465.55363,427.28923c235.98532,0,427.28923-191.3039,427.28923-427.28923s-191.3039-427.28923-427.28923-427.28923-427.28923,191.3039-427.28923,427.28923s191.3039,427.28923,427.28923,427.28923Z" fill="#fff" stroke-width="0"/></g></g><g transform="matrix(.027137 0 0 0.027137 1027.89696 1050.692042)"><g transform="matrix(1.164382 0 0 1.164382-94.854245-119.288586)"><path d="M1264.85284,1029.97868c0-257.11817,208.43546-465.55363,465.55363-465.55363s465.55363,208.43546,465.55363,465.55363-208.43546,465.55363-465.55363,465.55363-465.55363-208.43546-465.55363-465.55363Zm465.55363,427.28923c235.98532,0,427.28923-191.3039,427.28923-427.28923s-191.3039-427.28923-427.28923-427.28923-427.28923,191.3039-427.28923,427.28923s191.3039,427.28923,427.28923,427.28923Z" fill="#fff" stroke-width="0"/></g><g transform="matrix(.982378 0 0 0.982378 220.086567 68.171693)"><path d="M1264.85284,1029.97868c0-257.11817,208.43546-465.55363,465.55363-465.55363s465.55363,208.43546,465.55363,465.55363-208.43546,465.55363-465.55363,465.55363-465.55363-208.43546-465.55363-465.55363Zm465.55363,427.28923c235.98532,0,427.28923-191.3039,427.28923-427.28923s-191.3039-427.28923-427.28923-427.28923-427.28923,191.3039-427.28923,427.28923s191.3039,427.28923,427.28923,427.28923Z" fill="#fff" stroke-width="0"/></g><g transform="matrix(.811146 0 0 0.811146 516.387645 244.536948)"><path d="M1264.85284,1029.97868c0-257.11817,208.43546-465.55363,465.55363-465.55363s465.55363,208.43546,465.55363,465.55363-208.43546,465.55363-465.55363,465.55363-465.55363-208.43546-465.55363-465.55363Zm465.55363,427.28923c235.98532,0,427.28923-191.3039,427.28923-427.28923s-191.3039-427.28923-427.28923-427.28923-427.28923,191.3039-427.28923,427.28923s191.3039,427.28923,427.28923,427.28923Z" fill="#fff" stroke-width="0"/></g></g><g transform="matrix(.015424 0 0 0.015424 1050.38592 1063.342081)"><g transform="matrix(1.164382 0 0 1.164382-94.854245-119.288586)"><path d="M1264.85284,1029.97868c0-257.11817,208.43546-465.55363,465.55363-465.55363s465.55363,208.43546,465.55363,465.55363-208.43546,465.55363-465.55363,465.55363-465.55363-208.43546-465.55363-465.55363Zm465.55363,427.28923c235.98532,0,427.28923-191.3039,427.28923-427.28923s-191.3039-427.28923-427.28923-427.28923-427.28923,191.3039-427.28923,427.28923s191.3039,427.28923,427.28923,427.28923Z" fill="#fff" stroke-width="0"/></g><g transform="matrix(.982378 0 0 0.982378 220.086567 68.171693)"><path d="M1264.85284,1029.97868c0-257.11817,208.43546-465.55363,465.55363-465.55363s465.55363,208.43546,465.55363,465.55363-208.43546,465.55363-465.55363,465.55363-465.55363-208.43546-465.55363-465.55363Zm465.55363,427.28923c235.98532,0,427.28923-191.3039,427.28923-427.28923s-191.3039-427.28923-427.28923-427.28923-427.28923,191.3039-427.28923,427.28923s191.3039,427.28923,427.28923,427.28923Z" fill="#fff" stroke-width="0"/></g><g transform="matrix(.811146 0 0 0.811146 516.387645 244.536948)"><path d="M1264.85284,1029.97868c0-257.11817,208.43546-465.55363,465.55363-465.55363s465.55363,208.43546,465.55363,465.55363-208.43546,465.55363-465.55363,465.55363-465.55363-208.43546-465.55363-465.55363Zm465.55363,427.28923c235.98532,0,427.28923-191.3039,427.28923-427.28923s-191.3039-427.28923-427.28923-427.28923-427.28923,191.3039-427.28923,427.28923s191.3039,427.28923,427.28923,427.28923Z" fill="#fff" stroke-width="0"/></g></g><g transform="matrix(.008983 0 0 0.008983 1062.75264 1070.298361)"><g transform="matrix(1.164382 0 0 1.164382-94.854245-119.288586)"><path d="M1264.85284,1029.97868c0-257.11817,208.43546-465.55363,465.55363-465.55363s465.55363,208.43546,465.55363,465.55363-208.43546,465.55363-465.55363,465.55363-465.55363-208.43546-465.55363-465.55363Zm465.55363,427.28923c235.98532,0,427.28923-191.3039,427.28923-427.28923s-191.3039-427.28923-427.28923-427.28923-427.28923,191.3039-427.28923,427.28923s191.3039,427.28923,427.28923,427.28923Z" fill="#fff" stroke-width="0"/></g><g transform="matrix(.982378 0 0 0.982378 220.086567 68.171693)"><path d="M1264.85284,1029.97868c0-257.11817,208.43546-465.55363,465.55363-465.55363s465.55363,208.43546,465.55363,465.55363-208.43546,465.55363-465.55363,465.55363-465.55363-208.43546-465.55363-465.55363Zm465.55363,427.28923c235.98532,0,427.28923-191.3039,427.28923-427.28923s-191.3039-427.28923-427.28923-427.28923-427.28923,191.3039-427.28923,427.28923s191.3039,427.28923,427.28923,427.28923Z" fill="#fff" stroke-width="0"/></g><g transform="matrix(.811146 0 0 0.811146 516.387645 244.536948)"><path d="M1264.85284,1029.97868c0-257.11817,208.43546-465.55363,465.55363-465.55363s465.55363,208.43546,465.55363,465.55363-208.43546,465.55363-465.55363,465.55363-465.55363-208.43546-465.55363-465.55363Zm465.55363,427.28923c235.98532,0,427.28923-191.3039,427.28923-427.28923s-191.3039-427.28923-427.28923-427.28923-427.28923,191.3039-427.28923,427.28923s191.3039,427.28923,427.28923,427.28923Z" fill="#fff" stroke-width="0"/></g></g></svg>
